inDegrees=yes
name=ik_S49_A08_T01
DataType=double
version=3
OpenSimVersion=4.3-2021-08-27-4bc7ad9
endheader
time	pelvis_tilt	pelvis_list	pelvis_rotation	pelvis_tx	pelvis_ty	pelvis_tz	hip_flexion_r	hip_adduction_r	hip_rotation_r	knee_angle_r	knee_angle_r_beta	ankle_angle_r	subtalar_angle_r	mtp_angle_r	hip_flexion_l	hip_adduction_l	hip_rotation_l	knee_angle_l	knee_angle_l_beta	ankle_angle_l	subtalar_angle_l	mtp_angle_l	lumbar_extension	lumbar_bending	lumbar_rotation	arm_flex_r	arm_add_r	arm_rot_r	elbow_flex_r	pro_sup_r	wrist_flex_r	wrist_dev_r	arm_flex_l	arm_add_l	arm_rot_l	elbow_flex_l	pro_sup_l	wrist_flex_l	wrist_dev_l
6.419999999999951	-4.966988330839754	-1.157842579010146	24.60137130782759	0	0.9399999999999999	0	35.82918840013403	-12.64605699131204	-10.29054535437494	51.39754871017133	0.8970564524466544	0	0	0	35.82918840013403	-12.64605699131204	-10.29054535437494	51.39754871017133	0.8970564524466544	0	0	0	-4.784228146716039	-0.109444341360413	1.275593930016579	32.41331686415641	-3.598871472867865	2.999089534702666	37.31172124840378	120.8269828508222	0	0	70.11791462080659	-13.65499224790237	1.417152649329484	16.4221460375978	97.82162673694069	0	0
6.439999999999951	-4.981125605960982	-1.165959385210849	24.5502841346765	0	0.9399999999999999	0	35.83125865645815	-12.64400130785314	-10.29040097745052	51.39808917501877	0.8970658853377336	0	0	0	35.83125865645815	-12.64400130785314	-10.29040097745052	51.39808917501877	0.8970658853377336	0	0	0	-4.80069723088465	-0.1097703520812798	1.264489095612173	32.44577068826712	-3.542583924567896	3.048677837351982	37.31634390743273	120.8241004545699	0	0	70.249223679811	-13.64934591088444	1.488625939076183	16.32050091721147	97.7664226619208	0	0
6.45999999999995	-4.994230391057739	-1.167862059133709	24.49561447735462	0	0.9399999999999999	0	35.83378123566548	-12.6415048699966	-10.29022540704991	51.39874929002155	0.8970774065179739	0	0	0	35.83378123566548	-12.6415048699966	-10.29022540704991	51.39874929002155	0.8970774065179739	0	0	0	-4.813515123731349	-0.1057247143935679	1.262859550198835	32.45848672204111	-3.512198212732427	3.11282158749031	37.28920332501901	120.7942081108823	0	0	70.30573355332257	-13.62219727504146	1.592521512049408	15.76656678327411	97.77004748747179	0	0
6.47999999999995	-5.016307525252926	-1.187549511740429	24.47402103988805	0	0.9399999999999999	0	35.83575814229685	-12.63955281576421	-10.29008800432866	51.39926755526608	0.8970864519528896	0	0	0	35.83575814229685	-12.63955281576421	-10.29008800432866	51.39926755526608	0.8970864519528896	0	0	0	-4.841786715716538	-0.1143649570192535	1.263109063221969	32.49795298477901	-3.477637545529715	3.107717746270747	37.29453142536426	120.7928074299956	0	0	70.34836160839038	-13.67024037570657	1.704521056306475	15.87036442852663	97.92671623801098	0	0
6.499999999999949	-5.034348187099345	-1.181941611226199	24.47095949345759	0	0.9399999999999999	0	35.83705200003342	-12.63828578228214	-10.28999855075269	51.39960934249606	0.8970924172653939	0	0	0	35.83705200003342	-12.63828578228214	-10.28999855075269	51.39960934249606	0.8970924172653939	0	0	0	-4.856333146607127	-0.09971291431069024	1.242861699741302	32.53031468217531	-3.477380485274183	3.117666977136401	37.28907730440643	120.8106045807393	0	0	70.34611388420139	-13.78965641527566	1.733963017150892	15.98476473129714	97.89870295359275	0	0
6.519999999999949	-5.044049685557773	-1.200781997456484	24.49017980571226	0	0.9399999999999999	0	35.83996439707378	-12.6354092706755	-10.28979606277466	51.40037207997698	0.8971057295457645	0	0	0	35.83996439707378	-12.6354092706755	-10.28979606277466	51.40037207997698	0.8971057295457645	0	0	0	-4.873795340473124	-0.108551766043529	1.198910769658977	32.55752903562325	-3.434102213081419	3.119157035225183	37.28747907574945	120.8376490754205	0	0	70.29130771314735	-14.00155545650449	1.778289743519377	16.38761638154519	97.74232890874939	0	0
6.539999999999949	-5.043087898801253	-1.206336888349881	24.52720101543208	0	0.9399999999999999	0	35.84255061634886	-12.63286532556062	-10.28961670244972	51.40105160456282	0.8971175894871355	0	0	0	35.84255061634886	-12.63286532556062	-10.28961670244972	51.40105160456282	0.8971175894871355	0	0	0	-4.875788948220872	-0.111071879800383	1.170337628666493	32.54527620105151	-3.423253439847471	3.121321685056478	37.3014914837016	120.794174309394	0	0	70.14587347913924	-14.18939163770378	1.885901056821309	16.98004173913099	97.74370229707674	0	0
6.559999999999948	-5.048729999118734	-1.211548437896763	24.60277543141951	0	0.9399999999999999	0	35.84518922882836	-12.63027623790076	-10.28943397802355	51.40174612725392	0.897129711194825	0	0	0	35.84518922882836	-12.63027623790076	-10.28943397802355	51.40174612725392	0.897129711194825	0	0	0	-4.883655800796963	-0.1098070300904519	1.134940926003529	32.52190853058278	-3.445505743601561	3.118179251685268	37.35051043385414	120.7605687457842	0	0	69.94441323771885	-14.38286751538738	1.973943098235277	17.89921325738169	97.77003723746878	0	0
6.579999999999948	-5.047719010043835	-1.211634222080834	24.69820186273814	0	0.9399999999999999	0	35.84762705662978	-12.62789195127971	-10.28926549466658	51.40238945835308	0.897140939440686	0	0	0	35.84762705662978	-12.62789195127971	-10.28926549466658	51.40238945835308	0.897140939440686	0	0	0	-4.883714620199607	-0.1051908429727527	1.083229710246655	32.49500672308692	-3.470252932747287	3.107750445534173	37.38731269664505	120.7243280833477	0	0	69.73714889404424	-14.62047397731521	2.01705047845895	19.01952968782455	97.81979382799857	0	0
6.599999999999947	-5.046628114026086	-1.206924734815041	24.82961673415548	0	0.9399999999999999	0	35.85075032671256	-12.62484087461445	-10.28904977793455	51.40321412991158	0.8971553326746292	0	0	0	35.85075032671256	-12.62484087461445	-10.28904977793455	51.40321412991158	0.8971553326746292	0	0	0	-4.882309242013203	-0.09457501291012185	1.013104369243347	32.45937469578172	-3.533731592432258	3.079743537992422	37.43207088781265	120.7070766026348	0	0	69.51805029448087	-14.83844493146379	1.994430084054405	20.3529996120124	97.68483130482431	0	0
6.619999999999947	-5.049832311100966	-1.19998039854234	24.82460165402037	0	0.9399999999999999	0	35.85375916283749	-12.62192269016517	-10.28884292478272	51.40401398211489	0.8971692927291064	0	0	0	35.85375916283749	-12.62192269016517	-10.28884292478272	51.40401398211489	0.8971692927291064	0	0	0	-4.881425897319852	-0.09190340989631271	1.066336828094282	32.42592377838158	-3.606083913883514	3.054763071648169	37.48851207378746	120.6795218168585	0	0	69.51990056874433	-14.78781931949339	2.002734990670369	21.51864487577411	97.54998031730561	0	0
6.639999999999946	-5.019127732386958	-1.191359868511131	24.98028786583695	0	0.9399999999999999	0	35.85827417070447	-12.61749029132216	-10.28852999264293	51.40519868469101	0.8971899696897165	0	0	0	35.85827417070447	-12.61749029132216	-10.28852999264293	51.40519868469101	0.8971899696897165	0	0	0	-4.851270883526923	-0.08968875449390824	0.9879250997868474	32.29263997203068	-3.65088789158788	3.055280785730589	37.54432100626967	120.6569091778048	0	0	69.31895533994378	-14.99639706267251	2.005091222163908	23.18906067053555	97.51416747621516	0	0
6.659999999999946	-4.987192023095144	-1.201858179047766	25.14443513245913	0	0.9399999999999999	0	35.86253971679261	-12.61333468831935	-10.28823578428495	51.40632575532936	0.8972096407832584	0	0	0	35.86253971679261	-12.61333468831935	-10.28823578428495	51.40632575532936	0.8972096407832584	0	0	0	-4.826707167807856	-0.1120353202111055	0.9898771791693678	32.17157454168999	-3.73183235793615	2.995720208242553	37.59628025855761	120.6308852063847	0	0	69.30708883024961	-14.89121060013369	2.118555558930731	24.73618449416334	97.84985284944391	0	0
6.679999999999946	-4.964240521490492	-1.205357962234624	25.34613202488764	0	0.9399999999999999	0	35.86782523520746	-12.60811816853194	-10.28786804735324	51.40770299177373	0.8972336780937911	0	0	0	35.86782523520746	-12.60811816853194	-10.28786804735324	51.40770299177373	0.8972336780937911	0	0	0	-4.808412599346436	-0.1183759521568013	0.9137450095939262	32.09162603992495	-3.81958067443519	3.00523722990756	37.65309630859355	120.5221281364376	0	0	69.09248677494324	-15.26806829777507	2.048452530417122	26.80475905464059	98.21819698000672	0	0
6.699999999999945	-4.948796584908725	-1.210243960903334	25.50896319551847	0	0.9399999999999999	0	35.87252289361863	-12.60348972075912	-10.28754149579022	51.40892769878415	0.8972550532634952	0	0	0	35.87252289361863	-12.60348972075912	-10.28754149579022	51.40892769878415	0.8972550532634952	0	0	0	-4.798181953266694	-0.1211074703659652	0.8217279470385978	32.03727630555359	-3.86390500412464	3.117539406669267	37.6776847899115	120.5094189099723	0	0	69.11696914984847	-15.76478449630427	2.154490193635811	28.7543191118153	98.39882652268409	0	0
6.719999999999945	-4.917431591953964	-1.211194987727392	25.66472749154327	0	0.9399999999999999	0	35.87812359759998	-12.59799735195836	-10.28715326560314	51.41039292564154	0.8972806262964451	0	0	0	35.87812359759998	-12.59799735195836	-10.28715326560314	51.41039292564154	0.8972806262964451	0	0	0	-4.771883066868038	-0.1291246776829837	0.7620697472465352	31.95386116137514	-3.924697716017727	3.174150359998457	37.70014885721064	120.4449502159548	0	0	69.15364700831748	-15.95718725846206	2.32081785881473	30.68849445686846	98.57949341085759	0	0
6.739999999999944	-4.883874758643691	-1.212478895143538	25.74177525888744	0	0.9399999999999999	0	35.88299022123665	-12.59327318697769	-10.28681807946452	51.41167765050314	0.8973030489752623	0	0	0	35.88299022123665	-12.59327318697769	-10.28681807946452	51.41167765050314	0.8973030489752623	0	0	0	-4.742045927681602	-0.1450796952693192	0.7723471872131362	31.90044917637845	-3.960109760421059	3.208385568654605	37.69387931539389	120.3665837272874	0	0	69.11602609973127	-15.92448918904032	2.382965477443959	32.75341048391839	99.00638833400129	0	0
6.759999999999944	-4.810861340924014	-1.195454663686102	25.87294108754778	0	0.9399999999999999	0	35.88794889357044	-12.58842553743182	-10.28647489272955	51.41297598128025	0.897325709122103	0	0	0	35.88794889357044	-12.58842553743182	-10.28647489272955	51.41297598128025	0.897325709122103	0	0	0	-4.669733449486555	-0.158121491949472	0.7456628574135477	31.74449325678357	-4.009541294246301	3.162462451555868	37.69169302118661	120.362830762194	0	0	69.10818056458568	-16.13866640165612	2.549344665855212	34.82245320729144	99.26057545011213	0	0
